# xmcd CD database file
#
# Track frame offsets:
#	150
#	17378
#	39675
#	58715
#
# Disc length: 1000 seconds
#
# Revision: 7
# Processed by: cddbd v1.5PL3 Copyright (c) Steve Scherf et al.
# Submitted via: CDex 1.50Beta7
#
DISCID=2903e604
DTITLE=MINMI - The Perfect Vision
DYEAR=2002
DGENRE=JPop
TTITLE0=The Perfect Vision
TTITLE1=LOVE SONG
TTITLE2=south orange
TTITLE3=The Perfect Vision(Wicked Mix)
EXTD=YEAR: 2002
EXTT0=
EXTT1=
EXTT2=
EXTT3=
PLAYORDER=
